<?xml version="1.0" encoding="UTF-8"?><svg xmlns="http://www.w3.org/2000/svg" xmlns:xlink="http://www.w3.org/1999/xlink" fill="#000000" height="89.8" preserveAspectRatio="xMidYMid meet" version="1" viewBox="0.0 -5.9 206.8 89.8" width="206.8" zoomAndPan="magnify"><linearGradient gradientUnits="userSpaceOnUse" id="a" x1="0" x2="205" xlink:actuate="onLoad" xlink:show="other" xlink:type="simple" xmlns:xlink="http://www.w3.org/1999/xlink" y1="39.15" y2="39.15"><stop offset="0.251" stop-color="#8c52ff"/><stop offset="1" stop-color="#c9c9c9"/></linearGradient><path d="M0,76.2c22.5-7,31.7-18.9,37.8-34.8C42,30.6,45,13.3,65.6,12.8c12.6-0.3,19,8.3,32,3.8 c10.5-3.6,12.9-14.8,29-13.1C141.8,5.2,140.1,27,157.2,20c10.5-4.3,16.9-25.9,32.4-18.4c14.1,6.8,17.2,31,14.6,41 c-5.2,19.7-34.7,25.8-59.5,31.6C103.4,83.9,41.1,73,0,76.2" fill="url(#a)"/></svg>